<?xml version="1.0" encoding="UTF-8"?>
<svg version="1.1" xmlns="http://www.w3.org/2000/svg" width="866" height="650">
<path d="M0 0 C285.78 0 571.56 0 866 0 C866 214.5 866 429 866 650 C580.22 650 294.44 650 0 650 C0 435.5 0 221 0 0 Z " fill="#FEFEFE" transform="translate(0,0)"/>
<path d="M0 0 C2.95651574 0.00528593 5.91287404 0.00005545 8.86938477 -0.00634766 C15.18591063 -0.01024108 21.50071146 0.04710303 27.81665039 0.13037109 C29.6278688 0.15224487 29.6278688 0.15224487 31.47567749 0.17456055 C51.85317997 0.47078264 71.85937085 2.12712646 92.07891846 4.61608887 C94.99319316 4.97016192 97.90942916 5.30631019 100.82576656 5.6428957 C117.41697212 7.56541087 133.78561879 9.97915505 150.11903381 13.5431366 C153.87255378 14.36022692 157.63341964 15.14102674 161.39414978 15.9241333 C164.87041521 16.6497952 168.34361857 17.38940245 171.81665039 18.13037109 C171.81665039 18.46037109 171.81665039 18.79037109 171.81665039 19.13037109 C169.06638506 19.00996777 166.3164965 18.88485805 163.56665039 18.75537109 C162.70120102 18.71487137 161.83575165 18.67437164 160.94407654 18.63264465 C155.97815298 18.38531408 151.02817271 18.08194052 146.07568359 17.63842773 C125.09806679 15.80368803 104.17665862 15.86001609 83.13519287 15.93475342 C79.27859724 15.94561983 75.42203704 15.94521994 71.56542873 15.94461536 C67.78250673 15.9448901 63.9996066 15.95041773 60.21669197 15.95761681 C58.44331081 15.96074095 56.66992725 15.96275574 54.8965435 15.96351051 C42.83965936 15.97428539 30.85094169 16.39097933 18.81665039 17.13037109 C19.39858658 18.25547592 19.98052277 19.38058075 20.58009338 20.53977966 C20.90743249 21.17265113 21.2347716 21.80552259 21.57203007 22.45757198 C28.31086472 35.45489717 35.74920635 48.10057934 43.54711914 60.48974609 C45.26219611 63.21827764 46.87188553 65.96749894 48.37915039 68.81787109 C51.39400405 74.41132052 54.53482186 79.92844827 57.69165039 85.44287109 C58.21162598 86.35246582 58.73160156 87.26206055 59.26733398 88.19921875 C61.61020702 92.29356709 63.9597533 96.38352159 66.33618164 100.45849609 C66.70694824 101.09746826 67.07771484 101.73644043 67.4597168 102.39477539 C68.43307582 104.0705092 69.4117647 105.74314399 70.39086914 107.41552734 C71.81665039 110.13037109 71.81665039 110.13037109 72.81665039 114.13037109 C-28.16334961 114.13037109 -129.14334961 114.13037109 -233.18334961 114.13037109 C-233.84334961 115.78037109 -234.50334961 117.43037109 -235.18334961 119.13037109 C-235.58553711 120.06494141 -235.98772461 120.99951172 -236.40209961 121.96240234 C-243.09925494 137.54145575 -244.47371326 151.38823604 -238.66381836 167.43896484 C-226.71131233 197.24138753 -196.49104686 218.99516624 -167.91870117 231.50097656 C-165.94530572 232.32330077 -163.96084905 233.11097443 -161.97241211 233.89599609 C-159.18334961 235.13037109 -159.18334961 235.13037109 -158.18334961 237.13037109 C-185.45115728 231.20328472 -212.02635376 222.28127136 -237.18334961 210.13037109 C-237.77535156 209.84726074 -238.36735352 209.56415039 -238.97729492 209.27246094 C-257.84058417 200.21601849 -257.84058417 200.21601849 -266.18334961 194.13037109 C-266.18334961 193.47037109 -266.18334961 192.81037109 -266.18334961 192.13037109 C-266.86913086 191.90478516 -267.55491211 191.67919922 -268.26147461 191.44677734 C-271.89842655 189.80820408 -274.84199776 187.54483205 -277.93334961 185.06787109 C-278.86087036 184.32706299 -278.86087036 184.32706299 -279.80712891 183.57128906 C-295.1164464 171.18249987 -308.01253436 155.07182637 -311.18334961 135.13037109 C-312.4695259 118.14882476 -307.76208925 102.70570674 -296.8527832 89.52246094 C-277.80818494 67.5310229 -253.63663378 52.73428696 -227.18334961 41.13037109 C-226.09908691 40.65325684 -226.09908691 40.65325684 -224.99291992 40.16650391 C-203.71279683 30.89701014 -181.13541219 23.96314529 -158.54760742 18.68408203 C-156.8503475 18.28658249 -155.15454223 17.88285236 -153.4597168 17.47509766 C-124.0811494 10.43698539 -94.61788829 6.12985193 -64.55834961 3.31787109 C-63.43495178 3.2126413 -62.31155396 3.1074115 -61.15411377 2.99899292 C-40.73814952 1.11073023 -20.50504765 -0.043193 0 0 Z " fill="#FD6602" transform="translate(500.183349609375,292.86962890625)"/>
<path d="M0 0 C0.66 0 1.32 0 2 0 C3.62518029 2.84406551 5.25035209 5.68813586 6.87548828 8.53222656 C8.31117641 11.04470171 9.74707343 13.55705734 11.18310547 16.06933594 C14.83637162 22.46097792 18.48761763 28.85375107 22.1328125 35.25 C28.9585828 47.22342428 35.82494668 59.17116824 42.78393555 71.06787109 C48.93388375 81.58401252 55.01510004 92.13945966 61.09570312 102.69580078 C63.01506662 106.02614252 64.93682353 109.35509148 66.859375 112.68359375 C89.49986107 151.88320596 89.49986107 151.88320596 96 164 C87.46987246 164.0754137 87.46987246 164.0754137 83.31152344 164.02636719 C77.23545303 163.95497016 71.24478713 164.08823208 65.1796875 164.48046875 C46.15641657 165.35738659 46.15641657 165.35738659 40.82617188 161.37646484 C37.08576952 156.82231911 35.19678957 151.46148689 33.19775391 145.97802734 C31.09530787 140.75062483 28.10352937 136.05577096 25.1875 131.25 C24.00619798 129.24129572 22.82784044 127.23085708 21.65234375 125.21875 C20.76071533 123.70087891 20.76071533 123.70087891 19.85107422 122.15234375 C16.64315216 116.68931426 13.44607157 111.21996797 10.25 105.75 C9.65340576 104.73196289 9.05681152 103.71392578 8.44213867 102.66503906 C7.88888916 101.71854492 7.33563965 100.77205078 6.765625 99.796875 C6.27868164 98.96510742 5.79173828 98.13333984 5.29003906 97.27636719 C4 95 4 95 2.95214844 92.76269531 C2.1215321 90.82142733 2.1215321 90.82142733 0 90 C-0.2686084 90.7115625 -0.5372168 91.423125 -0.81396484 92.15625 C-2.02894575 95.06940306 -3.43553438 97.74610379 -4.9765625 100.5 C-5.56050781 101.54478516 -6.14445312 102.58957031 -6.74609375 103.66601562 C-7.36613281 104.76623047 -7.98617187 105.86644531 -8.625 107 C-9.26308594 108.13630859 -9.90117187 109.27261719 -10.55859375 110.44335938 C-14.17362883 116.85249997 -17.88889452 123.15134993 -21.8125 129.375 C-24.38526767 133.55574747 -26.7461461 137.85620173 -29.13085938 142.14599609 C-30.37210956 144.37330737 -31.62335895 146.59507696 -32.88476562 148.81103516 C-36.67913429 155.46323515 -36.67913429 155.46323515 -39.90625 162.3984375 C-41.60876037 166.11224689 -42.85631005 168.37947985 -46 171 C-50.94134397 172.7585766 -56.14726849 173.0057765 -61.33984375 173.38671875 C-69.93580931 174.03494776 -78.28198452 175.92207166 -86.70413208 177.68527222 C-88.66848017 178.09414465 -90.63499072 178.4925854 -92.6015625 178.890625 C-93.73932129 179.12813477 -94.87708008 179.36564453 -96.04931641 179.61035156 C-98.80015277 179.97360945 -100.41893297 179.91837783 -103 179 C-96.60224204 167.61295699 -90.19045663 156.23986891 -83.52978516 145.00415039 C-80.78904639 140.3707316 -78.12432339 135.70023784 -75.5 131 C-72.12848661 124.96494692 -68.66304623 118.99299567 -65.14355469 113.04321289 C-61.29969269 106.53436041 -57.52174765 99.98835413 -53.75 93.4375 C-48.88224827 84.98333811 -43.98954676 76.54473483 -39.0625 68.125 C-33.64497971 58.86251529 -28.30493511 49.55743378 -22.99386597 40.23370361 C-17.5076392 30.60410647 -11.95318832 21.0171346 -6.33984375 11.4609375 C-5.52580078 10.07261719 -5.52580078 10.07261719 -4.6953125 8.65625 C-3.9839917 7.44678711 -3.9839917 7.44678711 -3.25830078 6.21289062 C-2.09779962 4.17199375 -1.0269935 2.11067367 0 0 Z " fill="#122937" transform="translate(407,120)"/>
<path d="M0 0 C0.32871094 0.6084375 0.65742188 1.216875 0.99609375 1.84375 C6.4474009 11.88951927 11.96153129 21.9078835 17.80078125 31.734375 C18.49155762 32.89718994 18.49155762 32.89718994 19.19628906 34.08349609 C20.0938277 35.58891025 20.99540296 37.09192646 21.90136719 38.59228516 C25 43.78255674 25 43.78255674 25 46 C-32.75 46 -90.5 46 -150 46 C-145.26821932 42.21457545 -141.09120726 39.85772443 -135.6875 37.3125 C-134.76743164 36.87824707 -133.84736328 36.44399414 -132.89941406 35.99658203 C-108.75480142 24.81761826 -83.04926399 16.61275428 -57.17724609 10.52490234 C-55.22130223 10.05335275 -53.27576992 9.53910357 -51.33203125 9.01953125 C-41.79066196 6.47031045 -32.1334069 4.59598172 -22.4375 2.75 C-21.72855591 2.61312775 -21.01961182 2.47625549 -20.28918457 2.3352356 C-18.23443449 1.9402675 -16.17814639 1.55464955 -14.12109375 1.171875 C-12.9189624 0.9459668 -11.71683105 0.72005859 -10.47827148 0.48730469 C-6.93836573 -0.00863494 -3.56953218 -0.08557977 0 0 Z " fill="#FDFDFB" transform="translate(471,316)"/>
<path d="M0 0 C0.66 0 1.32 0 2 0 C2.2902002 0.51046875 2.58040039 1.0209375 2.87939453 1.546875 C8.86318399 12.06454467 14.89017079 22.5549843 21 33 C25.94081987 41.44760185 30.8302905 49.92224346 35.67626953 58.42456055 C43.14057416 71.51750194 50.72526654 84.5405178 58.3125 97.5625 C59.17464111 99.04327026 59.17464111 99.04327026 60.05419922 100.55395508 C60.60994629 101.50681396 61.16569336 102.45967285 61.73828125 103.44140625 C62.27662598 104.3658252 62.8149707 105.29024414 63.36962891 106.24267578 C64.47789557 108.11700398 65.60600489 109.97971072 66.75146484 111.83154297 C67.30141113 112.72115723 67.85135742 113.61077148 68.41796875 114.52734375 C68.91449951 115.3174585 69.41103027 116.10757324 69.92260742 116.92163086 C71 119 71 119 71 122 C64.66698148 122.99481708 58.24168329 123.89771849 52 122 C47.52179946 118.58733913 45.57118154 112.80304234 43.33300781 107.80761719 C40.78031651 102.43106957 37.64512276 97.37343599 34.625 92.25 C33.32524563 90.00166209 32.02835671 87.75166518 30.734375 85.5 C30.10337891 84.40300781 29.47238281 83.30601562 28.82226562 82.17578125 C25.6821904 76.70336719 22.56284119 71.21913682 19.44482422 65.73413086 C16.79539882 61.08930914 14.10343717 56.47318327 11.3671875 51.87890625 C10.46250732 50.35958496 10.46250732 50.35958496 9.53955078 48.80957031 C8.36758408 46.84680589 7.19162333 44.88641951 6.01123047 42.92871094 C5.48674316 42.05118164 4.96225586 41.17365234 4.421875 40.26953125 C3.95362305 39.49198486 3.48537109 38.71443848 3.00292969 37.91333008 C2 36 2 36 2 34 C1.34 34 0.68 34 0 34 C-0.39155273 35.30372559 -0.39155273 35.30372559 -0.79101562 36.63378906 C-2.00601099 40.01673659 -3.48521892 42.78827797 -5.34375 45.859375 C-6.00777832 46.96563232 -6.67180664 48.07188965 -7.35595703 49.21166992 C-7.88071625 50.07748184 -7.88071625 50.07748184 -8.41607666 50.96078491 C-10.25645518 53.99866859 -12.07715468 57.04829843 -13.8984375 60.09765625 C-14.2584787 60.6997139 -14.6185199 61.30177155 -14.98947144 61.92207336 C-17.79606103 66.62728104 -20.49717374 71.38070679 -23.125 76.1875 C-27.49656113 84.16926212 -32.02020459 92.05856888 -36.70556641 99.86083984 C-39.68169917 104.84664162 -42.42525037 109.78674322 -44.7890625 115.09375 C-51.09346925 128.7096281 -51.09346925 128.7096281 -56.66601562 131.18359375 C-63.03656396 132.86511734 -69.43495378 133.20767698 -76 133 C-72.7904617 126.43354664 -69.40146682 120.01810092 -65.75 113.6875 C-65.24114258 112.80070557 -64.73228516 111.91391113 -64.20800781 111.00024414 C-59.41280431 102.66697728 -54.53832119 94.38020355 -49.6651001 86.09243774 C-42.89376432 74.57358636 -36.25091843 62.98458529 -29.63671875 51.375 C-25.75088337 44.55541427 -21.82233117 37.76131104 -17.8828125 30.97265625 C-14.1809356 24.59274042 -10.4976 18.20211452 -6.8125 11.8125 C-6.13273192 10.63395136 -5.45296306 9.45540317 -4.77319336 8.27685547 C-3.18200784 5.51797344 -1.59093761 2.759025 0 0 Z " fill="#F7F9FA" transform="translate(407,148)"/>
<path d="M0 0 C2 1.8125 2 1.8125 4 4 C4 4.99 4 5.98 4 7 C-96.98 7 -197.96 7 -302 7 C-302.66 8.65 -303.32 10.3 -304 12 C-304.70032449 13.6076792 -305.40836857 15.21202313 -306.125 16.8125 C-306.47820312 17.60269531 -306.83140625 18.39289063 -307.1953125 19.20703125 C-307.46085937 19.79871094 -307.72640625 20.39039063 -308 21 C-309 17 -309 17 -303 5 C-202.68 4.67 -102.36 4.34 1 4 C0.67 2.68 0.34 1.36 0 0 Z " fill="#E8813C" transform="translate(569,400)"/>
<path d="M0 0 C1.32 0 2.64 0 4 0 C4.33 1.32 4.66 2.64 5 4 C5.66 4 6.32 4 7 4 C7 7.3 7 10.6 7 14 C5.43603076 14.00331015 3.87206152 14.00662029 2.26069927 14.01003075 C-34.83630278 14.08899017 -71.93326769 14.17818783 -109.03021418 14.28005161 C-113.59281511 14.29257099 -118.15541627 14.30500369 -122.71801758 14.31738281 C-124.08055752 14.3210818 -124.08055752 14.3210818 -125.47062352 14.32485552 C-140.1928675 14.36461622 -154.9151192 14.39734888 -169.63738564 14.42749982 C-184.73551904 14.45857637 -199.83361962 14.49716939 -214.93171614 14.54279006 C-224.25356345 14.57071869 -233.57538665 14.59273269 -242.89726462 14.60726251 C-249.28324108 14.61777693 -255.66917097 14.63556976 -262.0551124 14.65916704 C-265.74350763 14.67257889 -269.43183739 14.68270416 -273.12025833 14.68421364 C-277.11297641 14.68593118 -281.10554366 14.70293556 -285.09822083 14.7215271 C-286.27233058 14.71959237 -287.44644034 14.71765763 -288.65612918 14.71566427 C-289.72105458 14.72312976 -290.78597998 14.73059525 -291.88317585 14.73828697 C-293.26668687 14.74170446 -293.26668687 14.74170446 -294.67814761 14.74519098 C-297.27342276 14.84961019 -297.27342276 14.84961019 -300 17 C-300.25015873 20.58357241 -300.25015873 20.58357241 -300 24 C-301.32 24 -302.64 24 -304 24 C-304.33 25.32 -304.66 26.64 -305 28 C-305.33 27.01 -305.66 26.02 -306 25 C-304.02 21.04 -302.04 17.08 -300 13 C-199.02 13 -98.04 13 6 13 C4.02 9.37 2.04 5.74 0 2 C0 1.34 0 0.68 0 0 Z " fill="#FEF2D8" transform="translate(567,394)"/>
<path d="M0 0 C13.29083547 0.26153701 26.0495904 3.25061551 39 6 C40.94516315 6.4069645 42.89046864 6.81324946 44.8359375 7.21875 C49.22611423 8.13588006 53.61376652 9.06420049 58 10 C58 10.33 58 10.66 58 11 C55.24973467 10.87959668 52.49984611 10.75448696 49.75 10.625 C48.88455063 10.58450027 48.01910126 10.54400055 47.12742615 10.50227356 C42.16150259 10.25494299 37.21152232 9.95156942 32.2590332 9.50805664 C11.2814164 7.67331694 -9.63999177 7.729645 -30.68145752 7.80438232 C-34.53805315 7.81524874 -38.39461335 7.81484885 -42.25122166 7.81424427 C-46.03414366 7.81451901 -49.81704379 7.82004663 -53.59995842 7.82724571 C-55.37333958 7.83036986 -57.14672314 7.83238464 -58.92010689 7.83313942 C-70.97699103 7.84391429 -82.9657087 8.26060824 -95 9 C-95 9.66 -95 10.32 -95 11 C-97.31 11 -99.62 11 -102 11 C-102 10.34 -102 9.68 -102 9 C-89.08446751 5.95451989 -76.65910628 5.5281882 -63.4375 5.48828125 C-61.30801383 5.4713968 -59.17853739 5.45324164 -57.04907227 5.43388367 C-51.49921718 5.38678609 -45.94940157 5.35671813 -40.39941406 5.33044434 C-34.71411341 5.30043359 -29.02894835 5.25397483 -23.34375 5.20898438 C-12.2292382 5.12341025 -1.11469813 5.05586312 10 5 C10 4.01 10 3.02 10 2 C8.906875 2.04125 7.81375 2.0825 6.6875 2.125 C3 2 3 2 0 0 Z " fill="#EB873F" transform="translate(614,301)"/>
<path d="M0 0 C5.31707183 2.85059744 10.58632045 5.71341548 15.6875 8.9375 C20.79642154 12.07064121 26.19915992 14.36914879 31.73120117 16.64038086 C36.89817685 18.79635369 36.89817685 18.79635369 38 21 C18.76000045 16.81788384 0.41063461 10.94343934 -18 4 C-17.67 3.34 -17.34 2.68 -17 2 C-16.01 2.33 -15.02 2.66 -14 3 C-12.1923392 3.37809088 -10.37905428 3.72975261 -8.5625 4.0625 C-7.61503906 4.23910156 -6.66757812 4.41570313 -5.69140625 4.59765625 C-2.79421232 5.09856606 -2.79421232 5.09856606 1 5 C0.67 5.99 0.34 6.98 0 8 C0.99 8.33 1.98 8.66 3 9 C3.33 7.68 3.66 6.36 4 5 C3.01 4.67 2.02 4.34 1 4 C0.3125 1.9375 0.3125 1.9375 0 0 Z " fill="#F56A10" transform="translate(304,509)"/>
<path d="M0 0 C2.61724095 2.36797991 4.32861729 4.89600354 6 8 C6 8.66 6 9.32 6 10 C-51.75 10 -109.5 10 -169 10 C-168.01 9.01 -167.02 8.02 -166 7 C-165.01 7.33 -164.02 7.66 -163 8 C-160.78063115 8.09220895 -158.55851741 8.12193096 -156.3372345 8.12025452 C-155.31658505 8.12153615 -155.31658505 8.12153615 -154.27531642 8.12284368 C-151.9905652 8.12449353 -149.70588706 8.1189852 -147.42114258 8.11352539 C-145.78525291 8.11324339 -144.14936311 8.11340151 -142.51347351 8.1139679 C-138.06750092 8.11425535 -133.62155519 8.10836694 -129.17558885 8.10139394 C-124.53109768 8.09515183 -119.88660592 8.09455592 -115.24211121 8.09336853 C-106.44487888 8.09025775 -97.64765896 8.08204776 -88.8504321 8.07201904 C-78.83604448 8.06085006 -68.82165627 8.05534547 -58.80726397 8.05032361 C-38.20483572 8.03986495 -17.60241864 8.02227039 3 8 C2.505 7.4225 2.01 6.845 1.5 6.25 C0 4 0 4 0 0 Z " fill="#FFF2DA" transform="translate(490,352)"/>
<path d="M0 0 C0.33 1.32 0.66 2.64 1 4 C-0.32 4.33 -1.64 4.66 -3 5 C-3.061875 6.0725 -3.12375 7.145 -3.1875 8.25 C-4 12 -4 12 -6.5625 14.4375 C-7.7690625 15.2109375 -7.7690625 15.2109375 -9 16 C-9.66 15.34 -10.32 14.68 -11 14 C-11.391875 14.474375 -11.78375 14.94875 -12.1875 15.4375 C-14.40808374 17.35179633 -16.13375709 17.61266988 -19 18 C-13.49875172 11.1958245 -7.30649818 4.87099878 0 0 Z " fill="#FB6705" transform="translate(227,360)"/>
<path d="M0 0 C13.27923175 0.26130867 26.0617574 3.23405061 39 6 C39 6.33 39 6.66 39 7 C29.43 6.67 19.86 6.34 10 6 C10 4.68 10 3.36 10 2 C8.3603125 2.061875 8.3603125 2.061875 6.6875 2.125 C3 2 3 2 0 0 Z " fill="#ED7321" transform="translate(614,301)"/>
<path d="M0 0 C0 0.66 0 1.32 0 2 C0.99 2.33 1.98 2.66 3 3 C-0.63603718 3.82938804 -4.02873672 4.08627393 -7.75 4.1875 C-14.30960895 4.6277923 -19.85092237 6.4353704 -25.91113281 8.82885742 C-30.65366967 10.67437206 -34.9232093 11.54519232 -40 12 C-37.75536291 9.75536291 -36.53389624 9.41276262 -33.5234375 8.5703125 C-32.6272168 8.31411133 -31.73099609 8.05791016 -30.80761719 7.79394531 C-29.88110352 7.53194336 -28.95458984 7.26994141 -28 7 C-26.26196612 6.48007533 -24.52496265 5.95669235 -22.7890625 5.4296875 C-21.06770833 4.91145833 -19.34635417 4.39322917 -17.625 3.875 C-16.74972656 3.61074219 -15.87445313 3.34648437 -14.97265625 3.07421875 C-14.12832031 2.82027344 -13.28398437 2.56632812 -12.4140625 2.3046875 C-11.6607666 2.07765137 -10.9074707 1.85061523 -10.13134766 1.61669922 C-6.51443212 0.57015527 -3.83463509 0 0 0 Z " fill="#E4803A" transform="translate(336,314)"/>
<path d="M0 0 C0.69609375 0.13212891 1.3921875 0.26425781 2.109375 0.40039062 C2.80546875 0.53509766 3.5015625 0.66980469 4.21875 0.80859375 C4.94578125 0.94716797 5.6728125 1.08574219 6.421875 1.22851562 C8.18793037 1.5654604 9.95340426 1.90545058 11.71875 2.24609375 C11.71875 2.57609375 11.71875 2.90609375 11.71875 3.24609375 C9.21852963 3.10348409 6.7186229 2.95707911 4.21875 2.80859375 C3.52265625 2.76927734 2.8265625 2.72996094 2.109375 2.68945312 C1.41328125 2.64755859 0.7171875 2.60566406 0 2.5625 C-0.94262695 2.50751343 -0.94262695 2.50751343 -1.90429688 2.45141602 C-3.96278574 2.27360283 -6.01417564 2.01694656 -8.0625 1.74609375 C-12.06305128 1.23605072 -16.02937033 1.04352584 -20.0625 0.9296875 C-20.76145386 0.9089064 -21.46040771 0.88812531 -22.18054199 0.86671448 C-24.38069259 0.8021084 -26.58094696 0.74275466 -28.78125 0.68359375 C-30.28646842 0.64032358 -31.79167693 0.59670682 -33.296875 0.55273438 C-36.95822744 0.44652056 -40.61969234 0.34501179 -44.28125 0.24609375 C-44.28125 -0.08390625 -44.28125 -0.41390625 -44.28125 -0.75390625 C-39.87070584 -0.92286473 -35.45995411 -1.08326587 -31.04882812 -1.23608398 C-29.55134925 -1.28912776 -28.0539482 -1.34442238 -26.55664062 -1.40209961 C-24.39209783 -1.48507375 -22.22739514 -1.55968132 -20.0625 -1.6328125 C-18.76376953 -1.67994385 -17.46503906 -1.7270752 -16.12695312 -1.77563477 C-10.66019685 -1.74474718 -5.37020906 -1.02929007 0 0 Z " fill="#FEEBD2" transform="translate(572.28125,293.75390625)"/>
<path d="M0 0 C0 0.33 0 0.66 0 1 C-20.295 1.99 -20.295 1.99 -41 3 C-41 3.66 -41 4.32 -41 5 C-43.31 5 -45.62 5 -48 5 C-48 4.34 -48 3.68 -48 3 C-32.35070977 -1.32414598 -16.07692099 -0.28520739 0 0 Z " fill="#EA7120" transform="translate(560,307)"/>
<path d="M0 0 C-0.5 1.9375 -0.5 1.9375 -2 4 C-3.84375 4.34765625 -3.84375 4.34765625 -6 4.5 C-8.12409486 4.61661005 -8.12409486 4.61661005 -10 5 C-11.3169667 6.88370471 -11.3169667 6.88370471 -12 9 C-14.85133869 10.86811845 -17.67656569 11.40348615 -21 12 C-21.99 12.33 -22.98 12.66 -24 13 C-24.66 12.34 -25.32 11.68 -26 11 C-22.56386118 9.35131374 -19.12586207 7.70654396 -15.6875 6.0625 C-14.71103516 5.59392578 -13.73457031 5.12535156 -12.72851562 4.64257812 C-11.79072266 4.19462891 -10.85292969 3.74667969 -9.88671875 3.28515625 C-9.02264404 2.87144775 -8.15856934 2.45773926 -7.26831055 2.03149414 C-4.80946437 0.91335561 -2.72802493 0 0 0 Z " fill="#FEF5E4" transform="translate(352,347)"/>
<path d="M0 0 C1.9609375 2.328125 1.9609375 2.328125 3.375 5.25 C3.85710937 6.20390625 4.33921875 7.1578125 4.8359375 8.140625 C5.9127442 10.78566696 6.55852115 13.18685573 7 16 C-1 6.57142857 -1 6.57142857 -1 1 C-1.83192871 1.13631836 -1.83192871 1.13631836 -2.68066406 1.27539062 C-5.20325661 1.6868549 -7.72660717 2.09347372 -10.25 2.5 C-11.12269531 2.64308594 -11.99539063 2.78617187 -12.89453125 2.93359375 C-14.16103516 3.13662109 -14.16103516 3.13662109 -15.453125 3.34375 C-16.61569824 3.53227539 -16.61569824 3.53227539 -17.80175781 3.72460938 C-20 4 -20 4 -24 4 C-24 3.34 -24 2.68 -24 2 C-21.31460585 1.46533772 -18.62767372 0.94705317 -15.9375 0.4375 C-15.18533203 0.28603516 -14.43316406 0.13457031 -13.65820312 -0.02148438 C-8.88175661 -0.91060645 -4.75975036 -1.38604874 0 0 Z " fill="#E67123" transform="translate(472,315)"/>
<path d="M0 0 C0 0.33 0 0.66 0 1 C-0.79470703 1.07516846 -1.58941406 1.15033691 -2.40820312 1.2277832 C-22.19018482 3.02953981 -22.19018482 3.02953981 -41.73828125 6.44921875 C-45.57983769 7.09791271 -49.10833001 7.08912221 -53 7 C-53 6.67 -53 6.34 -53 6 C-51.94039063 5.79503906 -50.88078125 5.59007812 -49.7890625 5.37890625 C-48.40101178 5.10692334 -47.01299256 4.83477956 -45.625 4.5625 C-44.92632812 4.42779297 -44.22765625 4.29308594 -43.5078125 4.15429688 C-39.64371266 3.4227578 -39.64371266 3.4227578 -36 2 C-32.78859521 1.5021934 -29.54741294 1.24118685 -26.3125 0.9375 C-25.3738208 0.84807129 -24.4351416 0.75864258 -23.46801758 0.66650391 C-15.61821403 -0.03550561 -7.87674573 -0.2177902 0 0 Z " fill="#FDE8CA" transform="translate(429,297)"/>
<path d="M0 0 C6.45131487 6.25582048 12.16851899 13.17290028 18 20 C16.35 20.33 14.7 20.66 13 21 C13.33 19.68 13.66 18.36 14 17 C12.68 16.67 11.36 16.34 10 16 C10 16.66 10 17.32 10 18 C9.01 18 8.02 18 7 18 C7 17.01 7 16.02 7 15 C7.66 15 8.32 15 9 15 C8.2575 14.154375 7.515 13.30875 6.75 12.4375 C0 4.34134615 0 4.34134615 0 0 Z " fill="#E8782C" transform="translate(268,475)"/>
<path d="M0 0 C0.66 0 1.32 0 2 0 C1.835 1.216875 1.67 2.43375 1.5 3.6875 C0.51423149 12.74514109 0.44893691 21.23072063 3 30 C3 31.32 3 32.64 3 34 C2.34 34 1.68 34 1 34 C-1.23124813 30.42016494 -1.24488356 27.46722609 -1.23046875 23.30078125 C-1.22756836 21.36428711 -1.22756836 21.36428711 -1.22460938 19.38867188 C-1.21840576 18.7202124 -1.21220215 18.05175293 -1.20581055 17.36303711 C-1.18746836 15.3089569 -1.1853016 13.25532572 -1.18554688 11.20117188 C-1.14020451 1.14020451 -1.14020451 1.14020451 0 0 Z " fill="#FEF6DE" transform="translate(189,406)"/>
<path d="M0 0 C-2.99937622 1.62832016 -5.87175985 2.59808234 -9.17578125 3.4375 C-10.16900391 3.69273437 -11.16222656 3.94796875 -12.18554688 4.2109375 C-13.73338867 4.60152344 -13.73338867 4.60152344 -15.3125 5 C-17.35044581 5.52010746 -19.38821077 6.0409241 -21.42578125 6.5625 C-22.38436035 6.80742187 -23.34293945 7.05234375 -24.33056641 7.3046875 C-27.57117114 8.14877405 -30.78683144 9.0573497 -34 10 C-34.33 9.34 -34.66 8.68 -35 8 C-31.535 7.505 -31.535 7.505 -28 7 C-27.67 6.01 -27.34 5.02 -27 4 C-25.72382813 3.79503906 -24.44765625 3.59007812 -23.1328125 3.37890625 C-21.46351379 3.10694185 -19.79424447 2.83479709 -18.125 2.5625 C-17.28324219 2.42779297 -16.44148438 2.29308594 -15.57421875 2.15429688 C-14.76855469 2.02216797 -13.96289062 1.89003906 -13.1328125 1.75390625 C-12.38918457 1.63345947 -11.64555664 1.5130127 -10.87939453 1.38891602 C-3.82528809 -0.07083867 -3.82528809 -0.07083867 0 0 Z " fill="#E9782F" transform="translate(416,326)"/>
<path d="M0 0 C4.46797338 1.39878802 8.63822079 3.13630772 12.875 5.125 C14.02742188 5.66382813 15.17984375 6.20265625 16.3671875 6.7578125 C17.23601562 7.16773438 18.10484375 7.57765625 19 8 C15.32974164 9.22341945 13.9174406 8.63093459 10.23828125 7.56640625 C9.12001953 7.24736328 8.00175781 6.92832031 6.84960938 6.59960938 C5.68236328 6.25736328 4.51511719 5.91511719 3.3125 5.5625 C1.54422852 5.05493164 1.54422852 5.05493164 -0.25976562 4.53710938 C-3.17546022 3.69899473 -6.0886348 2.85300944 -9 2 C-5.61682513 1.02408417 -3.4342662 1.14143345 0 2 C0 1.34 0 0.68 0 0 Z " fill="#E28447" transform="translate(323,521)"/>
<path d="M0 0 C0 0.33 0 0.66 0 1 C-11.22 1 -22.44 1 -34 1 C-25.13896967 -4.90735356 -9.95899747 -1.73137743 0 0 Z " fill="#EF6A0E" transform="translate(608,306)"/>
<path d="M0 0 C9.01531729 -0.63019694 9.01531729 -0.63019694 13.125 2 C13.74375 2.66 14.3625 3.32 15 4 C11.61174033 5.69412983 7.82544923 4.89887151 4.125 4.6875 C3.30902344 4.65205078 2.49304688 4.61660156 1.65234375 4.58007812 C0.46705078 4.51530273 0.46705078 4.51530273 -0.7421875 4.44921875 C-1.4626123 4.41143311 -2.18303711 4.37364746 -2.92529297 4.3347168 C-5 4 -5 4 -9 2 C-4.38 2 0.24 2 5 2 C3.35 1.67 1.7 1.34 0 1 C0 0.67 0 0.34 0 0 Z " fill="#FBEAD6" transform="translate(662,309)"/>
<path d="M0 0 C-0.825 0.433125 -1.65 0.86625 -2.5 1.3125 C-3.325 1.869375 -4.15 2.42625 -5 3 C-5 3.99 -5 4.98 -5 6 C-8.3 5.67 -11.6 5.34 -15 5 C-15 5.66 -15 6.32 -15 7 C-17.64 7.33 -20.28 7.66 -23 8 C-20.039419 5.039419 -16.45619934 3.90034757 -12.625 2.3125 C-11.85671875 1.97927734 -11.0884375 1.64605469 -10.296875 1.30273438 C-9.55179687 0.99271484 -8.80671875 0.68269531 -8.0390625 0.36328125 C-7.36053223 0.07751221 -6.68200195 -0.20825684 -5.98291016 -0.50268555 C-3.64381833 -1.08933047 -2.26120568 -0.75721012 0 0 Z " fill="#EB7627" transform="translate(294,328)"/>
<path d="M0 0 C2 2 2 2 2 4 C2.495 4.66 2.99 5.32 3.5 6 C5 8 5 8 5 10 C2 11 2 11 -0.0625 10.25 C-2 9 -2 9 -4 6 C-4.66 5.67 -5.32 5.34 -6 5 C-5.25 3.0625 -5.25 3.0625 -4 1 C-2 0.125 -2 0.125 0 0 Z " fill="#0B2532" transform="translate(375,247)"/>
<path d="M0 0 C0.33 0 0.66 0 1 0 C1.125 6.625 1.125 6.625 0 10 C-0.14573058 11.47965926 -0.24663268 12.96403843 -0.31640625 14.44921875 C-0.35830078 15.29677734 -0.40019531 16.14433594 -0.44335938 17.01757812 C-0.48267578 17.89865234 -0.52199219 18.77972656 -0.5625 19.6875 C-0.60568359 20.58017578 -0.64886719 21.47285156 -0.69335938 22.39257812 C-0.79935353 24.59490108 -0.90142051 26.79733473 -1 29 C-5.28500642 21.07039776 -3.33664839 10.40852305 -1 2 C-0.67 1.34 -0.34 0.68 0 0 Z " fill="#EA803B" transform="translate(192,403)"/>
<path d="M0 0 C2.61724095 2.36797991 4.32861729 4.89600354 6 8 C6 8.66 6 9.32 6 10 C-4.56 10 -15.12 10 -26 10 C-26 9.67 -26 9.34 -26 9 C-16.43 8.67 -6.86 8.34 3 8 C2.01 6.68 1.02 5.36 0 4 C0 2.68 0 1.36 0 0 Z " fill="#FFF4DC" transform="translate(490,352)"/>
<path d="M0 0 C0.66 0.33 1.32 0.66 2 1 C0.61991938 7.2452133 -2.09637486 12.79689274 -7 17 C-7.66 16.67 -8.32 16.34 -9 16 C-6.03 10.72 -3.06 5.44 0 0 Z " fill="#1F303B" transform="translate(383,162)"/>
<path d="M0 0 C0.99 0.33 1.98 0.66 3 1 C4.8076608 1.37809088 6.62094572 1.72975261 8.4375 2.0625 C9.38496094 2.23910156 10.33242188 2.41570313 11.30859375 2.59765625 C14.20578768 3.09856606 14.20578768 3.09856606 18 3 C17.67 3.99 17.34 4.98 17 6 C17.66 6.66 18.32 7.32 19 8 C14.27497299 7.36757331 10.09429803 6.08186437 5.625 4.4375 C4.98433594 4.20353516 4.34367187 3.96957031 3.68359375 3.72851562 C2.1206839 3.15700381 0.56009273 2.57915771 -1 2 C-0.67 1.34 -0.34 0.68 0 0 Z " fill="#EC7322" transform="translate(287,511)"/>
<path d="M0 0 C1.65 0 3.3 0 5 0 C3.34030301 3.31939397 -0.30403519 4.1635919 -3.5625 5.625 C-4.27341797 5.94984375 -4.98433594 6.2746875 -5.71679688 6.609375 C-7.47529252 7.41190993 -9.23732367 8.20668959 -11 9 C-10.67 7.68 -10.34 6.36 -10 5 C-9.34 5 -8.68 5 -8 5 C-8 3.68 -8 2.36 -8 1 C-2.25 0.875 -2.25 0.875 0 2 C0 1.34 0 0.68 0 0 Z " fill="#EC6F1F" transform="translate(331,353)"/>
<path d="M0 0 C1.65322266 0.01740234 1.65322266 0.01740234 3.33984375 0.03515625 C4.44457031 0.04417969 5.54929687 0.05320312 6.6875 0.0625 C7.54214844 0.07410156 8.39679688 0.08570313 9.27734375 0.09765625 C9.27734375 0.42765625 9.27734375 0.75765625 9.27734375 1.09765625 C5.34252056 1.96448501 1.40414593 2.81393578 -2.53515625 3.66015625 C-4.21448242 4.03043945 -4.21448242 4.03043945 -5.92773438 4.40820312 C-7.53745117 4.75141602 -7.53745117 4.75141602 -9.1796875 5.1015625 C-10.1694458 5.31627197 -11.1592041 5.53098145 -12.17895508 5.75219727 C-14.72265625 6.09765625 -14.72265625 6.09765625 -17.72265625 5.09765625 C-14.65179266 2.42049312 -12.58128004 1.69976512 -8.53515625 1.47265625 C-5.21109197 1.2682482 -3.09528873 0.11102183 0 0 Z " fill="#EB7426" transform="translate(438.72265625,318.90234375)"/>
<path d="M0 0 C1 3 1 3 1 4 C1.66 4 2.32 4 3 4 C2.34 5.32 1.68 6.64 1 8 C-0.65 7.67 -2.3 7.34 -4 7 C-3.67 8.32 -3.34 9.64 -3 11 C-3.99 11.33 -4.98 11.66 -6 12 C-6.33 12.99 -6.66 13.98 -7 15 C-7.99 15.33 -8.98 15.66 -10 16 C-7.83132416 9.85541845 -4.11043158 4.99123834 0 0 Z " fill="#EC6F1C" transform="translate(207,378)"/>
<path d="M0 0 C-0.33 0.99 -0.66 1.98 -1 3 C-6.86754675 5.12445658 -10.19815377 5.17569234 -16 3 C-13.2403139 1.16020927 -11.70258118 0.51676779 -8.5625 -0.1875 C-7.41974609 -0.45626953 -7.41974609 -0.45626953 -6.25390625 -0.73046875 C-3.87041504 -1.0154963 -2.26895796 -0.72875415 0 0 Z " fill="#FEF3E1" transform="translate(416,328)"/>
<path d="M0 0 C6.66666667 3.33333333 13.33333333 6.66666667 20 10 C20 10.33 20 10.66 20 11 C16.8125 11.8125 16.8125 11.8125 13 12 C10.5625 9.875 10.5625 9.875 8 7 C5.90159763 5.61285386 3.76153471 4.3545123 1.57421875 3.11328125 C1.05472656 2.74589844 0.53523437 2.37851562 0 2 C0 1.34 0 0.68 0 0 Z " fill="#FEEED0" transform="translate(243,492)"/>
<path d="M0 0 C0.66 0 1.32 0 2 0 C2 0.66 2 1.32 2 2 C2.598125 2.226875 3.19625 2.45375 3.8125 2.6875 C6.65517943 4.39310766 7.60915375 6.00968056 9 9 C9.1875 11.8125 9.1875 11.8125 9 14 C9.66 14 10.32 14 11 14 C10.67 15.32 10.34 16.64 10 18 C8.32982236 15.18957076 6.66445191 12.37632343 5 9.5625 C4.28457031 8.35883789 4.28457031 8.35883789 3.5546875 7.13085938 C2.87792969 5.98520508 2.87792969 5.98520508 2.1875 4.81640625 C1.76855469 4.10943604 1.34960938 3.40246582 0.91796875 2.67407227 C0 1 0 1 0 0 Z " fill="#FEE2C1" transform="translate(526,324)"/>
<path d="M0 0 C2.48836965 3.73255448 2.54226552 5.58440935 2 10 C-0.5 12.4375 -0.5 12.4375 -3 14 C-3.29341888 8.32723489 -3.00559652 5.00932754 0 0 Z " fill="#F26E1A" transform="translate(196,394)"/>
<path d="M0 0 C-2.96178773 1.67110042 -5.37071192 2.32682752 -8.75 2.625 C-9.54921875 2.69976562 -10.3484375 2.77453125 -11.171875 2.8515625 C-11.77515625 2.90054687 -12.3784375 2.94953125 -13 3 C-13 3.33 -13 3.66 -13 4 C-17.95 3.67 -22.9 3.34 -28 3 C-28 2.67 -28 2.34 -28 2 C-24.64637391 1.6610769 -21.29202668 1.32988036 -17.9375 1 C-16.99455078 0.90460938 -16.05160156 0.80921875 -15.08007812 0.7109375 C-10.02487778 0.21774722 -5.07896392 -0.11270932 0 0 Z " fill="#EA772C" transform="translate(436,297)"/>
<path d="M0 0 C0 0.99 0 1.98 0 3 C0.99 3.33 1.98 3.66 3 4 C2.43410156 4.13148438 1.86820313 4.26296875 1.28515625 4.3984375 C-1.84432187 5.22226593 -4.84321941 6.36057645 -7.87890625 7.4765625 C-10 8 -10 8 -13 7 C-11.21190303 5.82786955 -9.41940875 4.66244474 -7.625 3.5 C-6.62726563 2.8503125 -5.62953125 2.200625 -4.6015625 1.53125 C-2 0 -2 0 0 0 Z " fill="#F0701B" transform="translate(249,347)"/>
<path d="M0 0 C3.58317958 -0.08720919 7.16608567 -0.14046112 10.75 -0.1875 C11.76578125 -0.21263672 12.7815625 -0.23777344 13.828125 -0.26367188 C14.8078125 -0.27333984 15.7875 -0.28300781 16.796875 -0.29296875 C17.69760742 -0.3086792 18.59833984 -0.32438965 19.52636719 -0.34057617 C22.45308763 0.06238228 23.81341349 1.0655403 26 3 C17.31482976 2.49354466 8.64790541 1.97704701 0 1 C0 0.67 0 0.34 0 0 Z " fill="#FBE0C5" transform="translate(586,297)"/>
<path d="M0 0 C3.01340738 0.44314814 5.20362576 1.10397911 7.9375 2.5 C11.03314147 4.01623256 13.59713893 4.59489749 17 5 C17 6.32 17 7.64 17 9 C10.5985585 7.60838228 5.38296768 4.71500586 0 1 C0 0.67 0 0.34 0 0 Z " fill="#E77833" transform="translate(246,493)"/>
<path d="M0 0 C0.825 0.556875 1.65 1.11375 2.5 1.6875 C5.7460628 3.86966183 9.08980976 5.86928889 12.4609375 7.8515625 C13.22277344 8.42003906 13.22277344 8.42003906 14 9 C14 9.66 14 10.32 14 11 C13.01 11 12.02 11 11 11 C11 10.34 11 9.68 11 9 C8.69 9 6.38 9 4 9 C4 7.35 4 5.7 4 4 C2.35 3.67 0.7 3.34 -1 3 C-0.67 2.01 -0.34 1.02 0 0 Z " fill="#FDE8D0" transform="translate(220,476)"/>
<path d="M0 0 C0.93826619 3.06687009 1.01788333 5.45007796 0.625 8.625 C0.53476562 9.40101563 0.44453125 10.17703125 0.3515625 10.9765625 C0 13 0 13 -1 15 C-1.22858114 17.0374763 -1.41024278 19.08040303 -1.5625 21.125 C-1.64628906 22.22070312 -1.73007812 23.31640625 -1.81640625 24.4453125 C-1.87699219 25.28835938 -1.93757813 26.13140625 -2 27 C-2.33 27 -2.66 27 -3 27 C-3.322092 17.49232119 -3.23806859 9.09743079 0 0 Z " fill="#FBCCA1" transform="translate(260,421)"/>
<path d="M0 0 C1.32 0.33 2.64 0.66 4 1 C3.01 1.5259375 3.01 1.5259375 2 2.0625 C-0.41103961 3.96557142 -0.41103961 3.96557142 -0.25 7.6875 C-0.1675 8.780625 -0.085 9.87375 0 11 C-1.32 11 -2.64 11 -4 11 C-4.33 12.32 -4.66 13.64 -5 15 C-6 12 -6 12 -4.78515625 9.08203125 C-4.21667969 8.00308594 -3.64820313 6.92414063 -3.0625 5.8125 C-2.49660156 4.72582031 -1.93070312 3.63914062 -1.34765625 2.51953125 C-0.90292969 1.68808594 -0.45820313 0.85664063 0 0 Z " fill="#FEEACA" transform="translate(267,407)"/>
<path d="M0 0 C0 5.36363636 0 5.36363636 -1 8 C-1.99 8.33 -2.98 8.66 -4 9 C-5.24546405 6.50907189 -4.7767578 5.58919267 -4 3 C-4.33 3.33 -4.66 3.66 -5 4 C-5.99 4 -6.98 4 -8 4 C-7 1 -7 1 -4.5625 -0.25 C-2 -1 -2 -1 0 0 Z " fill="#092333" transform="translate(367,273)"/>
<path d="M0 0 C0.66 0.33 1.32 0.66 2 1 C3.32 0.67 4.64 0.34 6 0 C4.35 3.3 2.7 6.6 1 10 C0.01 9.01 -0.98 8.02 -2 7 C-1.73904456 4.32520673 -1.1995243 2.39904859 0 0 Z " fill="#1F313D" transform="translate(388,233)"/>
<path d="M0 0 C0.66 0 1.32 0 2 0 C3.54296875 2.1171875 3.54296875 2.1171875 5.1875 4.875 C5.73792969 5.77992188 6.28835938 6.68484375 6.85546875 7.6171875 C7.23316406 8.40351563 7.61085938 9.18984375 8 10 C7.67 10.66 7.34 11.32 7 12 C6.01 12 5.02 12 4 12 C3.34 9.69 2.68 7.38 2 5 C1.01 5.33 0.02 5.66 -1 6 C-1.33 5.34 -1.66 4.68 -2 4 C-1.0625 1.875 -1.0625 1.875 0 0 Z " fill="#293942" transform="translate(407,182)"/>
<path d="M0 0 C1.32 0.33 2.64 0.66 4 1 C4 1.66 4 2.32 4 3 C4.79664063 2.65775391 4.79664063 2.65775391 5.609375 2.30859375 C6.31578125 2.02113281 7.0221875 1.73367188 7.75 1.4375 C8.44609375 1.14746094 9.1421875 0.85742188 9.859375 0.55859375 C12.30012784 -0.07831803 13.6403655 0.19751169 16 1 C14.04350603 1.83764268 12.08474444 2.66999059 10.125 3.5 C9.03445313 3.9640625 7.94390625 4.428125 6.8203125 4.90625 C4 6 4 6 2 6 C2 5.34 2 4.68 2 4 C1.34 4 0.68 4 0 4 C0 2.68 0 1.36 0 0 Z " fill="#EB6C19" transform="translate(336,346)"/>
<path d="M0 0 C0.33 0 0.66 0 1 0 C1.66 3.96 2.32 7.92 3 12 C3.66 12 4.32 12 5 12 C5.33 15.3 5.66 18.6 6 22 C1.96172116 17.96172116 0.30360616 11.0268614 -0.2578125 5.4296875 C-0.25131815 3.61776421 -0.13896907 1.80659785 0 0 Z " fill="#FEEBD4" transform="translate(258,444)"/>
<path d="M0 0 C0 0.66 0 1.32 0 2 C0.99 2.33 1.98 2.66 3 3 C-1.96073422 4.32286246 -6.91111512 4.08893197 -12 4 C-12 3.34 -12 2.68 -12 2 C-10.7625 1.67 -9.525 1.34 -8.25 1 C-7.55390625 0.814375 -6.8578125 0.62875 -6.140625 0.4375 C-4 0 -4 0 0 0 Z " fill="#EB7120" transform="translate(336,314)"/>
<path d="M0 0 C0.99 0.33 1.98 0.66 3 1 C1.73147606 2.60599349 0.460089 4.20972575 -0.8125 5.8125 C-1.87404297 7.15248047 -1.87404297 7.15248047 -2.95703125 8.51953125 C-4.56411377 10.47076911 -6.17040423 12.26274976 -8 14 C-8 12.35 -8 10.7 -8 9 C-7.360625 8.7525 -6.72125 8.505 -6.0625 8.25 C-3.81258459 7.18437567 -3.81258459 7.18437567 -3.25 4.875 C-3.1675 4.25625 -3.085 3.6375 -3 3 C-2.34 3 -1.68 3 -1 3 C-0.67 2.01 -0.34 1.02 0 0 Z " fill="#FEEAD0" transform="translate(206,376)"/>
<path d="M0 0 C1.77433812 0.93084971 3.54435149 1.86994613 5.3125 2.8125 C6.29863281 3.33457031 7.28476562 3.85664062 8.30078125 4.39453125 C11 6 11 6 14 9 C10.7 8.34 7.4 7.68 4 7 C4 6.34 4 5.68 4 5 C3.01 4.67 2.02 4.34 1 4 C0.3125 1.9375 0.3125 1.9375 0 0 Z " fill="#E77628" transform="translate(304,509)"/>
<path d="M0 0 C9.59453303 2.89066059 9.59453303 2.89066059 13 6 C11.7625 5.7834375 11.7625 5.7834375 10.5 5.5625 C6.67313722 4.94746848 2.84783293 4.46439363 -1 4 C-0.67 2.68 -0.34 1.36 0 0 Z " fill="#FEF0DA" transform="translate(265,504)"/>
<path d="M0 0 C2.1875 -0.3125 2.1875 -0.3125 5 0 C7.8125 2.3125 7.8125 2.3125 10 5 C10 5.99 10 6.98 10 8 C6.05205855 6.32971708 3.18203882 3.8204435 0 1 C0 0.67 0 0.34 0 0 Z M7 0 C7.99 0.495 7.99 0.495 9 1 C8.01 1.495 8.01 1.495 7 2 C7 1.34 7 0.68 7 0 Z " fill="#FCEADA" transform="translate(288,496)"/>
<path d="M0 0 C0.66 0 1.32 0 2 0 C2 0.99 2 1.98 2 3 C2.99 3 3.98 3 5 3 C6.46939453 7.30322683 7.77443263 11.62297367 9 16 C6.18368359 13.50506504 4.59044019 10.73437182 2.8125 7.4375 C2.28269531 6.46683594 1.75289063 5.49617188 1.20703125 4.49609375 C0 2 0 2 0 0 Z " fill="#E47528" transform="translate(487,344)"/>
<path d="M0 0 C8 9.42857143 8 9.42857143 8 14 C7.01 13.67 6.02 13.34 5 13 C5 12.01 5 11.02 5 10 C4.34 10 3.68 10 3 10 C3 9.34 3 8.68 3 8 C2.34 8 1.68 8 1 8 C0.67 5.36 0.34 2.72 0 0 Z " fill="#E37429" transform="translate(522,318)"/>
<path d="M0 0 C0.99 0.495 0.99 0.495 2 1 C2.67258667 3.33163378 3.33847444 5.6652039 4 8 C4.53625 8.86625 5.0725 9.7325 5.625 10.625 C7.18970719 13.32767606 7.2631365 14.93007415 7 18 C4.68902596 15.13942468 3.17070609 12.41372871 1.8125 9 C1.46832031 8.154375 1.12414062 7.30875 0.76953125 6.4375 C0 4 0 4 0 0 Z " fill="#E47830" transform="translate(191,432)"/>
<path d="M0 0 C-4.455 3.465 -4.455 3.465 -9 7 C-10 4 -10 4 -9.3125 1.875 C-8 0 -8 0 -6.125 -0.8125 C-4 -1 -4 -1 0 0 Z " fill="#FDEDD8" transform="translate(226,362)"/>
<path d="M0 0 C-3.25417945 1.79567975 -6.46571529 2.77381863 -10.0625 3.6875 C-11.62677734 4.09548828 -11.62677734 4.09548828 -13.22265625 4.51171875 C-16 5 -16 5 -19 4 C-12.37384327 0.90133798 -7.32627475 -0.47266289 0 0 Z " fill="#FEEBD2" transform="translate(336,313)"/>
<path d="M0 0 C0 0.33 0 0.66 0 1 C-2.24886238 1.50509208 -4.49913869 2.00389179 -6.75 2.5 C-8.62945312 2.91765625 -8.62945312 2.91765625 -10.546875 3.34375 C-14 4 -14 4 -18 4 C-17.67 3.01 -17.34 2.02 -17 1 C-11.30494264 0.3583034 -5.73266804 -0.12462322 0 0 Z " fill="#FEEACE" transform="translate(376,304)"/>
<path d="M0 0 C10 11.53846154 10 11.53846154 10 17 C9.01 16.67 8.02 16.34 7 16 C5.96514123 13.68191636 4.9644586 11.34824702 4 9 C3.34 8.67 2.68 8.34 2 8 C0.6250851 5.09740189 0 3.23861295 0 0 Z " fill="#E37830" transform="translate(530,332)"/>
<path d="M0 0 C0.66 0.33 1.32 0.66 2 1 C0.61147985 3.77704031 -0.96788482 4.03382737 -3.8125 5.1875 C-4.68519531 5.55230469 -5.55789063 5.91710937 -6.45703125 6.29296875 C-9.14801336 7.04115271 -10.415372 6.9458895 -13 6 C-10.87959258 4.96966118 -8.75352092 3.95097146 -6.625 2.9375 C-5.44164062 2.36902344 -4.25828125 1.80054688 -3.0390625 1.21484375 C-2.03617187 0.81394531 -1.03328125 0.41304688 0 0 Z " fill="#EC792E" transform="translate(269,336)"/>
<path d="M0 0 C1.32 0 2.64 0 4 0 C4 0.66 4 1.32 4 2 C5.98 2 7.96 2 10 2 C8.375 3.5625 8.375 3.5625 6 5 C2.8125 4.8125 2.8125 4.8125 0 4 C-0.33 3.34 -0.66 2.68 -1 2 C-0.67 1.34 -0.34 0.68 0 0 Z " fill="#FEF5E0" transform="translate(288,322)"/>
<path d="M0 0 C0.66 0.33 1.32 0.66 2 1 C-0.97 5.95 -0.97 5.95 -4 11 C-4.33 10.34 -4.66 9.68 -5 9 C-5.66 8.67 -6.32 8.34 -7 8 C-6.34 6.68 -5.68 5.36 -5 4 C-4.01 4 -3.02 4 -2 4 C-2 3.34 -2 2.68 -2 2 C-1.34 2 -0.68 2 0 2 C0 1.34 0 0.68 0 0 Z " fill="#233340" transform="translate(386,182)"/>
<path d="M0 0 C2.31 0.33 4.62 0.66 7 1 C7 1.66 7 2.32 7 3 C7.804375 3.268125 8.60875 3.53625 9.4375 3.8125 C10.283125 4.204375 11.12875 4.59625 12 5 C12.33 5.99 12.66 6.98 13 8 C8.27626146 6.37621488 4.05818166 3.89006982 0 1 C0 0.67 0 0.34 0 0 Z " fill="#FEE9CB" transform="translate(302,507)"/>
<path d="M0 0 C4.0369867 1.79421631 6.64480474 3.20551875 9 7 C7.35 7.33 5.7 7.66 4 8 C4.33 6.68 4.66 5.36 5 4 C3.68 3.67 2.36 3.34 1 3 C1 3.66 1 4.32 1 5 C0.01 5 -0.98 5 -2 5 C-2 4.01 -2 3.02 -2 2 C-1.34 2 -0.68 2 0 2 C0 1.34 0 0.68 0 0 Z " fill="#F3701E" transform="translate(277,488)"/>
<path d="M0 0 C2.64 0.33 5.28 0.66 8 1 C4.58983503 3.86453858 1.09305456 5.34703566 -3 7 C-3 5.68 -3 4.36 -3 3 C-2.01 3 -1.02 3 0 3 C0 2.01 0 1.02 0 0 Z " fill="#FEF4E1" transform="translate(254,338)"/>
<path d="M0 0 C2.97 0 5.94 0 9 0 C8.67 0.99 8.34 1.98 8 3 C9.32 3 10.64 3 12 3 C12.33 3.99 12.66 4.98 13 6 C3.40546697 3.10933941 3.40546697 3.10933941 0 0 Z " fill="#EE7226" transform="translate(272,506)"/>
<path d="M0 0 C-0.5 1.875 -0.5 1.875 -2 4 C-6.16184478 5.75090827 -9.65580004 6.35390985 -14 5 C-12.04350603 4.16235732 -10.08474444 3.33000941 -8.125 2.5 C-6.48917969 1.80390625 -6.48917969 1.80390625 -4.8203125 1.09375 C-2 0 -2 0 0 0 Z " fill="#FDDDBF" transform="translate(352,347)"/>
<path d="M0 0 C0.33 0.99 0.66 1.98 1 3 C0 5 0 5 -2 6 C-2 5.01 -2 4.02 -2 3 C-2.99 4.485 -2.99 4.485 -4 6 C-4.33 5.01 -4.66 4.02 -5 3 C-7.00016466 1.79117904 -7.00016466 1.79117904 -9 1 C-6.06474376 -0.46762812 -3.22390037 0 0 0 Z " fill="#082230" transform="translate(387,233)"/>
<path d="M0 0 C0 0.66 0 1.32 0 2 C0.66 2 1.32 2 2 2 C2 3.32 2 4.64 2 6 C-1.77545388 4.90931332 -4.47043472 4.0916909 -7 1 C-2.25 0 -2.25 0 0 0 Z " fill="#FCE7CD" transform="translate(325,516)"/>
<path d="M0 0 C2 3 2 3 2 7 C-1 6 -1 6 -3 4 C-4.98 4.99 -4.98 4.99 -7 6 C-6.3125 3.5625 -6.3125 3.5625 -5 1 C-2.375 0.1875 -2.375 0.1875 0 0 Z " fill="#18313E" transform="translate(374,185)"/>
<path d="M0 0 C1.32 0 2.64 0 4 0 C4.18175781 0.84884766 4.18175781 0.84884766 4.3671875 1.71484375 C4.53476562 2.44832031 4.70234375 3.18179687 4.875 3.9375 C5.03742188 4.66839844 5.19984375 5.39929688 5.3671875 6.15234375 C5.82961523 8.20700294 5.82961523 8.20700294 8 9 C7.67 10.32 7.34 11.64 7 13 C6.01719585 11.39805929 5.03888283 9.79336258 4.0625 8.1875 C3.51722656 7.29417969 2.97195313 6.40085937 2.41015625 5.48046875 C1 3 1 3 0 0 Z " fill="#E77223" transform="translate(479,331)"/>
<path d="M0 0 C0.33 1.32 0.66 2.64 1 4 C1.33 4.33 1.66 4.66 2 5 C1.5625 7.0625 1.5625 7.0625 1 9 C-0.98 9.33 -2.96 9.66 -5 10 C-3.35 6.7 -1.7 3.4 0 0 Z " fill="#22323A" transform="translate(309,290)"/>
<path d="M0 0 C0 4.1041911 -1.45843064 5.84021107 -4 9 C-6.75 9.875 -6.75 9.875 -9 10 C-8.06409496 8.8944811 -7.12620142 7.79064547 -6.1875 6.6875 C-5.66542969 6.07261719 -5.14335937 5.45773437 -4.60546875 4.82421875 C-3.12827531 3.14575321 -1.59960869 1.56117966 0 0 Z " fill="#E77526" transform="translate(217,368)"/>
<path d="M0 0 C5.61 0 11.22 0 17 0 C17 0.33 17 0.66 17 1 C12.38 1 7.76 1 3 1 C3 2.65 3 4.3 3 6 C0 2.25 0 2.25 0 0 Z " fill="#FFF2DC" transform="translate(519,310)"/>
<path d="M0 0 C1.29474635 3.88423904 0.63372371 5.28699157 -1 9 C-3.625 11.875 -3.625 11.875 -6 14 C-6 10.27792613 -4.82035432 8.53604411 -3 5.3125 C-2.443125 4.31863281 -1.88625 3.32476562 -1.3125 2.30078125 C-0.879375 1.54152344 -0.44625 0.78226563 0 0 Z " fill="#E7EFF2" transform="translate(396,229)"/>
<path d="M0 0 C3.48331435 3.01887244 4.79157144 5.56909529 6 10 C4.02 9.01 2.04 8.02 0 7 C0 4.69 0 2.38 0 0 Z " fill="#EC7C2C" transform="translate(540,349)"/>
<path d="M0 0 C-1.9570868 0.67031719 -3.91571113 1.33614683 -5.875 2 C-6.96554687 2.37125 -8.05609375 2.7425 -9.1796875 3.125 C-12 4 -12 4 -14 4 C-14 3.34 -14 2.68 -14 2 C-9.49173304 -1.00551131 -5.16494535 -1.50975326 0 0 Z " fill="#E67226" transform="translate(374,339)"/>
<path d="M0 0 C3.3 0.99 6.6 1.98 10 3 C6 5 6 5 2 5 C2 4.01 2 3.02 2 2 C1.34 2 0.68 2 0 2 C0 1.34 0 0.68 0 0 Z " fill="#FDF0D9" transform="translate(304,519)"/>
<path d="M0 0 C-0.33 0.99 -0.66 1.98 -1 3 C-5.16138263 3.08159574 -8.9472484 2.98248524 -13 2 C-13 1.67 -13 1.34 -13 1 C-11.58366664 0.83052421 -10.16691467 0.66454493 -8.75 0.5 C-7.56664062 0.36078125 -7.56664062 0.36078125 -6.359375 0.21875 C-4 0 -4 0 0 0 Z " fill="#FFF9E9" transform="translate(592,294)"/>
<path d="M0 0 C0.66 0 1.32 0 2 0 C2.25 2.3125 2.25 2.3125 2 5 C-0.04424538 6.97610386 -1.1176825 8 -4 8 C-2.87548273 5.0280615 -1.77706209 2.66559313 0 0 Z " fill="#283943" transform="translate(340,237)"/>
<path d="M0 0 C0.66 0.33 1.32 0.66 2 1 C0.80100302 4.0831351 -0.47700477 7.06279492 -2 10 C-2.99 9.67 -3.98 9.34 -5 9 C-3.35 6.03 -1.7 3.06 0 0 Z " fill="#24343D" transform="translate(391,210)"/>
<path d="M0 0 C2.74792483 3.40219265 6 7.48464588 6 12 C5.01 11.67 4.02 11.34 3 11 C2.67 9.02 2.34 7.04 2 5 C1.34 5 0.68 5 0 5 C0 3.35 0 1.7 0 0 Z " fill="#FFEBCA" transform="translate(192,440)"/>
<path d="M0 0 C2.50037734 2.17424117 3.43628586 3.73045798 4 7 C2.68 6.67 1.36 6.34 0 6 C0 6.66 0 7.32 0 8 C-0.66 8 -1.32 8 -2 8 C-2 7.01 -2 6.02 -2 5 C-1.34 5 -0.68 5 0 5 C0 3.35 0 1.7 0 0 Z " fill="#F36E1F" transform="translate(564,391)"/>
<path d="M0 0 C3.48331435 3.01887244 4.79157144 5.56909529 6 10 C3.69 8.35 1.38 6.7 -1 5 C-0.67 3.35 -0.34 1.7 0 0 Z " fill="#EF7321" transform="translate(546,360)"/>
<path d="M0 0 C0.99 0.33 1.98 0.66 3 1 C2.67 2.32 2.34 3.64 2 5 C1.01 5 0.02 5 -1 5 C-1.33 5.99 -1.66 6.98 -2 8 C-2.66 7.67 -3.32 7.34 -4 7 C-2.68 4.69 -1.36 2.38 0 0 Z " fill="#22323D" transform="translate(368,250)"/>
<path d="M0 0 C0.66 0.33 1.32 0.66 2 1 C1.07506212 4.78383679 0.60628829 6.56693694 -2.625 8.875 C-3.40875 9.24625 -4.1925 9.6175 -5 10 C-3.66511872 6.40608886 -2.03977277 3.24509304 0 0 Z " fill="#24343E" transform="translate(397,200)"/>
<path d="M0 0 C1.32 0 2.64 0 4 0 C5.06775224 1.96466413 6.06553465 3.96855359 7 6 C6.67 6.66 6.34 7.32 6 8 C4.99403703 7.0479279 3.99538437 6.08812654 3 5.125 C2.443125 4.59132813 1.88625 4.05765625 1.3125 3.5078125 C0 2 0 2 0 0 Z " fill="#FEEDD4" transform="translate(273,480)"/>
<path d="M0 0 C2.97 0.495 2.97 0.495 6 1 C6.68707555 3.49064888 7 5.37886292 7 8 C5.83035398 6.8572081 4.66435444 5.71068285 3.5 4.5625 C2.8503125 3.92441406 2.200625 3.28632813 1.53125 2.62890625 C0 1 0 1 0 0 Z " fill="#E9782C" transform="translate(208,464)"/>
<path d="M0 0 C2.2344598 4.03292745 2.54496743 7.44967434 3 12 C2.34 12 1.68 12 1 12 C-0.26237731 9.47524538 -0.09856404 7.68799534 -0.0625 4.875 C-0.05347656 3.96492188 -0.04445312 3.05484375 -0.03515625 2.1171875 C-0.02355469 1.41851562 -0.01195312 0.71984375 0 0 Z " fill="#FEEACD" transform="translate(189,428)"/>
<path d="M0 0 C0.66 1.32 1.32 2.64 2 4 C1.01 4.66 0.02 5.32 -1 6 C-1.33 6.99 -1.66 7.98 -2 9 C-2.99 9.33 -3.98 9.66 -5 10 C-3.66511872 6.40608886 -2.03977277 3.24509304 0 0 Z " fill="#F17329" transform="translate(202,384)"/>
<path d="M0 0 C3 1 3 1 4.75 3.875 C6 7 6 7 5 10 C4.16121545 8.71186658 3.32913217 7.41936744 2.5 6.125 C2.0359375 5.40570313 1.571875 4.68640625 1.09375 3.9453125 C0 2 0 2 0 0 Z M5 3 C7 4 7 4 7 4 Z " fill="#FDF1DB" transform="translate(552,368)"/>
<path d="M0 0 C2.31 0.33 4.62 0.66 7 1 C1.85714286 5.42857143 1.85714286 5.42857143 -2 6 C-2 5.34 -2 4.68 -2 4 C-1.34 4 -0.68 4 0 4 C0 2.68 0 1.36 0 0 Z " fill="#FAEFD3" transform="translate(242,345)"/>
<path d="M0 0 C2.63664741 2.63664741 4.255224 4.75970171 6 8 C6 8.66 6 9.32 6 10 C4.68 9.67 3.36 9.34 2 9 C1.34 6.03 0.68 3.06 0 0 Z " fill="#FDE6C6" transform="translate(475,326)"/>
<path d="M0 0 C1.093125 0.185625 2.18625 0.37125 3.3125 0.5625 C6.93624133 1.2578068 6.93624133 1.2578068 10 0 C10 0.99 10 1.98 10 3 C7.36 3.33 4.72 3.66 2 4 C1.34 2.68 0.68 1.36 0 0 Z " fill="#FDF1DE" transform="translate(334,528)"/>
<path d="M0 0 C0.33 1.32 0.66 2.64 1 4 C0.21625 4.28875 -0.5675 4.5775 -1.375 4.875 C-4.09671632 5.84912254 -4.09671632 5.84912254 -6 8 C-6.99 7.67 -7.98 7.34 -9 7 C-6.03 4.69 -3.06 2.38 0 0 Z " fill="#E6762B" transform="translate(227,360)"/>
<path d="M0 0 C0.99 0.33 1.98 0.66 3 1 C1.52307692 5.67692308 1.52307692 5.67692308 -1.125 7.3125 C-2.053125 7.6528125 -2.053125 7.6528125 -3 8 C-2.67 6.68 -2.34 5.36 -2 4 C-1.34 4 -0.68 4 0 4 C0 2.68 0 1.36 0 0 Z " fill="#F36B17" transform="translate(323,354)"/>
<path d="M0 0 C0.66 0 1.32 0 2 0 C2 0.66 2 1.32 2 2 C2.598125 2.226875 3.19625 2.45375 3.8125 2.6875 C6.56351888 4.33811133 7.52484637 6.1972081 9 9 C8.01 9.495 8.01 9.495 7 10 C7 9.01 7 8.02 7 7 C6.34 7 5.68 7 5 7 C5 6.34 5 5.68 5 5 C4.360625 4.731875 3.72125 4.46375 3.0625 4.1875 C1 3 1 3 0 0 Z " fill="#FEEFD9" transform="translate(526,324)"/>
<path d="M0 0 C2.61724095 2.36797991 4.32861729 4.89600354 6 8 C6 8.66 6 9.32 6 10 C5.34 10 4.68 10 4 10 C1.1605948 6.32547562 0 4.73113419 0 0 Z " fill="#FEE5C1" transform="translate(490,352)"/>
<path d="M0 0 C2.97 0.495 2.97 0.495 6 1 C4.25 4.875 4.25 4.875 2 6 C1.34 4.02 0.68 2.04 0 0 Z " fill="#1F333D" transform="translate(456,229)"/>
<path d="M0 0 C0.66 0.33 1.32 0.66 2 1 C-0.475 5.455 -0.475 5.455 -3 10 C-3.33 10 -3.66 10 -4 10 C-4.41176754 6.39703406 -4.1535853 5.21597933 -2 2.1875 C-1.34 1.465625 -0.68 0.74375 0 0 Z " fill="#E5EEF2" transform="translate(356,206)"/>
<path d="M0 0 C2.23960447 2.87949147 4.29864224 5.76742026 6 9 C5.67 9.66 5.34 10.32 5 11 C0.07692308 5.70769231 0.07692308 5.70769231 -0.3125 2.125 C-0.209375 1.42375 -0.10625 0.7225 0 0 Z " fill="#25373E" transform="translate(426,151)"/>
<path d="M0 0 C1.32 0.99 2.64 1.98 4 3 C2.68 4.32 1.36 5.64 0 7 C-0.66 6.67 -1.32 6.34 -2 6 C-1.34 4.02 -0.68 2.04 0 0 Z " fill="#F66811" transform="translate(294,502)"/>
<path d="M0 0 C2.31 0 4.62 0 7 0 C7 1.32 7 2.64 7 4 C4.69 3.34 2.38 2.68 0 2 C0 1.34 0 0.68 0 0 Z " fill="#EE7122" transform="translate(256,498)"/>
<path d="M0 0 C-1.98 1.32 -3.96 2.64 -6 4 C-6 3.34 -6 2.68 -6 2 C-7.32 1.67 -8.64 1.34 -10 1 C-3.71428571 -1.42857143 -3.71428571 -1.42857143 0 0 Z " fill="#FEECDA" transform="translate(378,339)"/>
<path d="M0 0 C0.33 0.66 0.66 1.32 1 2 C2.32 1.34 3.64 0.68 5 0 C5 0.66 5 1.32 5 2 C5.66 2 6.32 2 7 2 C7 2.66 7 3.32 7 4 C4.36 4 1.72 4 -1 4 C-0.67 2.68 -0.34 1.36 0 0 Z " fill="#0A2231" transform="translate(426,234)"/>
<path d="M0 0 C0.65234375 1.796875 0.65234375 1.796875 1 4 C-0.36489377 6.33370072 -2.1419038 8.00594554 -4 10 C-4.33 9.34 -4.66 8.68 -5 8 C-4.00390625 6.0546875 -4.00390625 6.0546875 -2.5625 3.875 C-2.08941406 3.15054688 -1.61632812 2.42609375 -1.12890625 1.6796875 C-0.75636719 1.12539062 -0.38382812 0.57109375 0 0 Z " fill="#DDE7E9" transform="translate(402,219)"/>
<path d="M0 0 C2.25245881 2.68841859 3.88213958 4.64641875 5 8 C4.01 8.495 4.01 8.495 3 9 C2.67 8.34 2.34 7.68 2 7 C1.01 7.495 1.01 7.495 0 8 C0 5.36 0 2.72 0 0 Z " fill="#23353F" transform="translate(443,181)"/>
<path d="M0 0 C0 1.32 0 2.64 0 4 C-1.32 4.33 -2.64 4.66 -4 5 C-4 4.34 -4 3.68 -4 3 C-4.66 2.67 -5.32 2.34 -6 2 C-2.25 0 -2.25 0 0 0 Z " fill="#FB660F" transform="translate(288,506)"/>
<path d="M0 0 C0.99 0 1.98 0 3 0 C3 0.66 3 1.32 3 2 C3.66 2 4.32 2 5 2 C5 3.65 5 5.3 5 7 C3.29115995 5.37660195 1.62553283 3.70680947 0 2 C0 1.34 0 0.68 0 0 Z " fill="#EB7528" transform="translate(203,457)"/>
<path d="M0 0 C1.32 1.65 2.64 3.3 4 5 C3.67 5.66 3.34 6.32 3 7 C2.01 6.67 1.02 6.34 0 6 C-0.33 6.66 -0.66 7.32 -1 8 C-1.125 2.25 -1.125 2.25 0 0 Z " fill="#253844" transform="translate(419,139)"/>
<path d="M0 0 C-0.33 0.99 -0.66 1.98 -1 3 C-3.5625 4.1875 -3.5625 4.1875 -6 5 C-6.66 4.34 -7.32 3.68 -8 3 C-2.25 0 -2.25 0 0 0 Z " fill="#FDE6C9" transform="translate(334,355)"/>
<path d="M0 0 C1.33332095 2.6666419 0.67102033 4.16680303 0 7 C0.66 7.33 1.32 7.66 2 8 C1.01 8 0.02 8 -1 8 C-1.66 6.02 -2.32 4.04 -3 2 C-2.01 1.34 -1.02 0.68 0 0 Z " fill="#FDEBD4" transform="translate(547,352)"/>
<path d="M0 0 C4 4.75 4 4.75 4 7 C3.01 7.33 2.02 7.66 1 8 C0.17361624 5.10765685 0 3.11257569 0 0 Z " fill="#FDECDB" transform="translate(481,336)"/>
<path d="M0 0 C0.66 1.32 1.32 2.64 2 4 C0.10646634 5.89353366 -1.84526801 7.4198632 -4 9 C-2.80100302 5.9168649 -1.52299523 2.93720508 0 0 Z " fill="#E5EDF2" transform="translate(370,274)"/>
<path d="M0 0 C0.99 1.32 1.98 2.64 3 4 C1.02 4.99 1.02 4.99 -1 6 C-1.66 4.68 -2.32 3.36 -3 2 C-2.01 1.34 -1.02 0.68 0 0 Z " fill="#1E333E" transform="translate(437,232)"/>
<path d="M0 0 C0.99 0.99 1.98 1.98 3 3 C2.67 3.99 2.34 4.98 2 6 C0.68 5.34 -0.64 4.68 -2 4 C-1.34 2.68 -0.68 1.36 0 0 Z " fill="#0B2432" transform="translate(391,163)"/>
<path d="M0 0 C0.33 0.66 0.66 1.32 1 2 C1.99 2 2.98 2 4 2 C3.67 3.32 3.34 4.64 3 6 C2.34 6 1.68 6 1 6 C0.34 4.35 -0.32 2.7 -1 1 C-0.67 0.67 -0.34 0.34 0 0 Z " fill="#1D323C" transform="translate(418,161)"/>
<path d="M0 0 C0.66 0 1.32 0 2 0 C2.66 1.65 3.32 3.3 4 5 C3.01 5.495 3.01 5.495 2 6 C2 5.34 2 4.68 2 4 C0.68 4.33 -0.64 4.66 -2 5 C-1.34 3.35 -0.68 1.7 0 0 Z " fill="#30414A" transform="translate(407,120)"/>
</svg>
